PathFileType	4	(X/Y/Z)	trial_0_0-299.trc
DataRate	CameraRate	NumFrames	NumMarkers	Units	OrigDataRate	OrigDataStartFrame	OrigNumFrames
60	60	14	27	m	60	74	299
Frame#	Time	RHip			RKnee			RAnkle			RBigToe			RSmallToe			RHeel			LHip			LKnee			LAnkle			LBigToe			LSmallToe			LHeel			Neck			Head			Nose			RShoulder			RElbow			RWrist			RThumb			RIndex			RPinky			LShoulder			LElbow			LWrist			LThumb			LIndex			LPinky		
		X1	Y1	Z1	X2	Y2	Z2	X3	Y3	Z3	X4	Y4	Z4	X5	Y5	Z5	X6	Y6	Z6	X7	Y7	Z7	X8	Y8	Z8	X9	Y9	Z9	X10	Y10	Z10	X11	Y11	Z11	X12	Y12	Z12	X13	Y13	Z13	X14	Y14	Z14	X15	Y15	Z15	X16	Y16	Z16	X17	Y17	Z17	X18	Y18	Z18	X19	Y19	Z19	X20	Y20	Z20	X21	Y21	Z21	X22	Y22	Z22	X23	Y23	Z23	X24	Y24	Z24	X25	Y25	Z25	X26	Y26	Z26	X27	Y27	Z27
75	1.25	1.011169993040185	1.7402171161937372	0.2820002617215278	1.5931778871441624	1.7657045670794087	0.22795674139402405	2.1392926484607564	1.7987572167715755	0.18417076488167367	0.00016381445212003157	0.00013438275242632844	6.639689388915263e-06	2.428516780703757	1.9711969776197722	0.23648424760160086	2.176039111460697	1.781318438098977	0.18959731016151965	0.0	0.0	0.0	0.0	0.0	0.0	0.0	0.0	0.0	0.0	0.0	0.0	0.0	0.0	0.0	1.008570794035672	0.8518396441957902	0.010368516929658109	0.0	0.0	0.0	0.0	0.0	0.0	0.0	0.0	0.0	0.0	0.0	0.0	0.6947834033405486	1.6612476294689467	0.46256394183937183	0.0	0.0	0.0	0.0	0.0	0.0	0.0	0.0	0.0	0.0	0.0	0.0	0.0	0.0	0.0	0.0	0.0	0.0	0.0	0.0	0.0	0.0	0.0	0.0	0.0	0.0	0.0	0.0	0.0	0.0
76	1.2666666666666666	1.0102771089286815	1.7401280199524765	0.28235381352155375	1.594236878658347	1.7662609010187076	0.22883603553556986	2.139925799974849	1.7987648225057544	0.18433036507585987	0.0	0.0	0.0	2.4294735073474016	1.972735154954583	0.23667841094298814	2.1759804056343963	1.7813821005362613	0.18960483847382031	0.0	0.0	0.0	0.0	0.0	0.0	0.0	0.0	0.0	0.0	0.0	0.0	0.0	0.0	0.0	1.0778787444246114	0.909712914604436	0.011034392120748318	0.0	0.0	0.0	0.0	0.0	0.0	0.0	0.0	0.0	0.0	0.0	0.0	0.6951199334945706	1.6633183364230835	0.46275330122203134	0.0	0.0	0.0	0.0	0.0	0.0	0.0	0.0	0.0	0.0	0.0	0.0	0.0	0.0	0.0	0.0	0.0	0.0	0.0	0.0	0.0	0.0	0.0	0.0	0.0	0.0	0.0	0.0	0.0	0.0
77	1.2833333333333334	1.0091467299740706	1.7400194654761543	0.28243322940873905	1.5940264068814733	1.767155195406006	0.22955910273265054	2.139525003120536	1.798818484404193	0.18422045870959802	0.00016301682504190915	0.00013278741213916363	7.182657546753251e-06	2.430321506549129	1.9743858229345987	0.23647756731136205	2.1759413789084814	1.7814184676940812	0.18959811812249017	0.0	0.0	0.0	0.0	0.0	0.0	0.0	0.0	0.0	0.0	0.0	0.0	0.0	0.0	0.0	1.0168984570753132	0.8574544707749835	0.010352656851988499	0.0	0.0	0.0	0.0	0.0	0.0	0.0	0.0	0.0	0.0	0.0	0.0	0.6956327992548657	1.6661843265365963	0.4622361225071244	0.0	0.0	0.0	0.0	0.0	0.0	0.0	0.0	0.0	0.0	0.0	0.0	0.0	0.0	0.0	0.0	0.0	0.0	0.0	0.0	0.0	0.0	0.0	0.0	0.0	0.0	0.0	0.0	0.0	0.0
78	1.3	1.007990555278907	1.7399325750169998	0.2822504717168988	1.5926710207374697	1.7681551664231425	0.23014370716807794	2.138162769092129	1.7989017218867493	0.1838599156458236	0.0012260162304814934	0.0009987083509261827	5.402069667221968e-05	2.4309442705744164	1.975732294426567	0.2360892891341465	2.175937536275125	1.7814160406310917	0.18957875742629374	0.0	0.0	0.0	0.0	0.0	0.0	0.0	0.0	0.0	0.0	0.0	0.0	0.0	0.0	0.0	0.9079280880568996	0.7646353581516738	0.009172720579127156	0.0	0.0	0.0	0.0	0.0	0.0	0.0	0.0	0.0	0.0	0.0	0.0	0.6964208669238245	1.6700091301137077	0.4611657625564109	0.0	0.0	0.0	0.0	0.0	0.0	0.0	0.0	0.0	0.0	0.0	0.0	0.0	0.0	0.0	0.0	0.0	0.0	0.0	0.0	0.0	0.0	0.0	0.0	0.0	0.0	0.0	0.0	0.0	0.0
79	1.3166666666666669	1.0067276481654508	1.7398495709152006	0.28192853641150234	1.5904688162501306	1.768893730500551	0.23056088842224842	2.1364592959986117	1.7989644393571114	0.18340688995148666	0.0066243374020620175	0.005396261331095582	0.0002918889064378134	2.431040552118698	1.9760089413958988	0.23573126068328115	2.1759853879422435	1.7813601390643132	0.18955185943614383	0.0	0.0	0.0	0.0	0.0	0.0	0.0	0.0	0.0	0.0	0.0	0.0	0.0	0.0	0.0	0.8865369394870649	0.7456011414358459	0.008876863887295125	0.0	0.0	0.0	0.0	0.0	0.0	0.0	0.0	0.0	0.0	0.0	0.0	0.6974932718659637	1.6742745247756865	0.45983101098015555	0.0	0.0	0.0	0.0	0.0	0.0	0.0	0.0	0.0	0.0	0.0	0.0	0.0	0.0	0.0	0.0	0.0	0.0	0.0	0.0	0.0	0.0	0.0	0.0	0.0	0.0	0.0	0.0	0.0	0.0
80	1.3333333333333333	1.0051561763754526	1.739726344262274	0.2816285916240081	1.5879137715278775	1.7691433340850615	0.2308029758622127	2.135311815864464	1.7989542158119103	0.18309146275614357	0.027974956006858544	0.022789238118306264	0.0012327062027252707	2.430421749561776	1.9747447504470987	0.23546058166164557	2.176079838889114	1.7812574504532996	0.1895262347936773	0.0	0.0	0.0	0.0	0.0	0.0	0.0	0.0	0.0	0.0	0.0	0.0	0.0	0.0	0.0	1.0300026482469304	0.8655203127435414	0.010253570560183094	0.0	0.0	0.0	0.0	0.0	0.0	0.0	0.0	0.0	0.0	0.0	0.0	0.6987478707069248	1.6780661988216174	0.45856519422828196	0.0	0.0	0.0	0.0	0.0	0.0	0.0	0.0	0.0	0.0	0.0	0.0	0.0	0.0	0.0	0.0	0.0	0.0	0.0	0.0	0.0	0.0	0.0	0.0	0.0	0.0	0.0	0.0	0.0	0.0
81	1.35	1.0032916635535274	1.7395449707054045	0.28144837570632797	1.5856755623392065	1.7689337925511743	0.23081024601866929	2.13537290437776	1.7988517999153681	0.18308292701864504	0.09373886756647247	0.0763645122526789	0.0041307418229709954	2.4292597121498747	1.9723565212666379	0.23519658852692457	2.176195194263942	1.7811390840488324	0.18951169898207804	0.0	0.0	0.0	0.0	0.0	0.0	0.0	0.0	0.0	0.0	0.0	0.0	0.0	0.0	0.0	1.276088713961289	1.0721019303105095	0.01268553644951997	0.0	0.0	0.0	0.0	0.0	0.0	0.0	0.0	0.0	0.0	0.0	0.0	0.6999780536409161	1.6807247791680153	0.4576079271299053	0.0	0.0	0.0	0.0	0.0	0.0	0.0	0.0	0.0	0.0	0.0	0.0	0.0	0.0	0.0	0.0	0.0	0.0	0.0	0.0	0.0	0.0	0.0	0.0	0.0	0.0	0.0	0.0	0.0	0.0
82	1.3666666666666667	1.0015960698977058	1.7393469224396336	0.2813591816392825	1.5844764589475417	1.7684257276808633	0.23035401723092808	2.1366636376819916	1.798679612581751	0.18338940685497324	0.2514956931769632	0.20488867492379587	0.011083247113789036	2.4279770896195236	1.9699741051092037	0.23495076991770764	2.176316285691602	1.7810297310012286	0.18951273325790785	0.0	0.0	0.0	0.0	0.0	0.0	0.0	0.0	0.0	0.0	0.0	0.0	0.0	0.0	0.0	1.4646573880085003	1.2306446192432938	0.014569374767431944	0.0	0.0	0.0	0.0	0.0	0.0	0.0	0.0	0.0	0.0	0.0	0.0	0.7009134439004305	1.6821854332791881	0.4570339966994623	0.0	0.0	0.0	0.0	0.0	0.0	0.0	0.0	0.0	0.0	0.0	0.0	0.0	0.0	0.0	0.0	0.0	0.0	0.0	0.0	0.0	0.0	0.0	0.0	0.0	0.0	0.0	0.0	0.0	0.0
83	1.3833333333333333	1.0007568832074756	1.7392102664942208	0.28123615168875793	1.584809248384191	1.767812591407063	0.22921352858312566	2.13858536711562	1.7984849294537582	0.18386021486383142	0.5462159897752515	0.44501333401160026	0.024073792475449877	2.4268717191035183	1.9686581971874189	0.23491568613537073	2.1764522483980207	1.780926450569101	0.18952496056851303	0.0	0.0	0.0	0.0	0.0	0.0	0.0	0.0	0.0	0.0	0.0	0.0	0.0	0.0	0.0	1.4653406588514217	1.2314484844695053	0.014596354744506723	0.0	0.0	0.0	0.0	0.0	0.0	0.0	0.0	0.0	0.0	0.0	0.0	0.7013226603225191	1.682786633181351	0.45679569874626985	0.0	0.0	0.0	0.0	0.0	0.0	0.0	0.0	0.0	0.0	0.0	0.0	0.0	0.0	0.0	0.0	0.0	0.0	0.0	0.0	0.0	0.0	0.0	0.0	0.0	0.0	0.0	0.0	0.0	0.0
84	1.4	1.0011069450529422	1.7391815776561148	0.2809743738247868	1.5865724009777198	1.7673136437296924	0.22751458624485935	2.1402890688237424	1.7983154361849485	0.18428093484349456	0.9748478600084765	0.7942807444702817	0.042971791758530845	2.4258263994461875	1.9687050164091469	0.23521624309944192	2.1766052537254312	1.7808177701904142	0.18953922099705406	0.0	0.0	0.0	0.0	0.0	0.0	0.0	0.0	0.0	0.0	0.0	0.0	0.0	0.0	0.0	1.2806975632406774	1.0766517309772	0.012791820203707166	0.0	0.0	0.0	0.0	0.0	0.0	0.0	0.0	0.0	0.0	0.0	0.0	0.7011417294249294	1.682916509436072	0.4567971362041017	0.0	0.0	0.0	0.0	0.0	0.0	0.0	0.0	0.0	0.0	0.0	0.0	0.0	0.0	0.0	0.0	0.0	0.0	0.0	0.0	0.0	0.0	0.0	0.0	0.0	0.0	0.0	0.0	0.0	0.0
85	1.4166666666666667	1.0022855670622253	1.7392311287270164	0.28058157929122923	1.5889815872892812	1.7670787790099243	0.22572874397016632	2.1411318603567477	1.7981998569920274	0.18448913851501547	1.4597950045989276	1.1895055607782294	0.06436305010734002	2.4243950600805033	1.9695435534445251	0.23569876521908534	2.1767389679669007	1.780713412324813	0.18954842584436268	0.0	0.0	0.0	0.0	0.0	0.0	0.0	0.0	0.0	0.0	0.0	0.0	0.0	0.0	0.0	1.049499919098284	0.8830606411781654	0.010554333157783669	0.0	0.0	0.0	0.0	0.0	0.0	0.0	0.0	0.0	0.0	0.0	0.0	0.7005308366657228	1.682839916674716	0.4569322535041789	0.0	0.0	0.0	0.0	0.0	0.0	0.0	0.0	0.0	0.0	0.0	0.0	0.0	0.0	0.0	0.0	0.0	0.0	0.0	0.0	0.0	0.0	0.0	0.0	0.0	0.0	0.0	0.0	0.0	0.0
86	1.4333333333333331	1.0034898858022276	1.7392744866841838	0.2801465122916137	1.590979406942919	1.7670745519160695	0.22429671920894184	2.1409172314154756	1.798141390235116	0.1844338409343538	1.8841526106762545	1.5354541682171052	0.08309922543173977	2.4222135936619997	1.970182498924095	0.23611686121462538	2.176798327915043	1.780642021836143	0.18954995853145096	0.0	0.0	0.0	0.0	0.0	0.0	0.0	0.0	0.0	0.0	0.0	0.0	0.0	0.0	0.0	0.9498382021760268	0.8006126632417917	0.0096788566937916	0.0	0.0	0.0	0.0	0.0	0.0	0.0	0.0	0.0	0.0	0.0	0.0	0.6997935611111039	1.6827010599886356	0.45709827678910037	0.0	0.0	0.0	0.0	0.0	0.0	0.0	0.0	0.0	0.0	0.0	0.0	0.0	0.0	0.0	0.0	0.0	0.0	0.0	0.0	0.0	0.0	0.0	0.0	0.0	0.0	0.0	0.0	0.0	0.0
87	1.45	1.0039961780334408	1.7392290148457725	0.2797305303114332	1.5917999350761236	1.767136251536352	0.22334042422618455	2.1398370138288207	1.7981252343501444	0.18416132612823088	2.1627495816386713	1.7627058364081503	0.09542473457054042	2.419325783461752	1.9697631173326293	0.23645356519192148	2.176757112192188	1.7806236652598364	0.1895440350815862	0.0	0.0	0.0	0.0	0.0	0.0	0.0	0.0	0.0	0.0	0.0	0.0	0.0	0.0	0.0	1.0708217229223667	0.9043263001618567	0.011052182119318864	0.0	0.0	0.0	0.0	0.0	0.0	0.0	0.0	0.0	0.0	0.0	0.0	0.6991962253369524	1.6825568448009312	0.45720807611901215	0.0	0.0	0.0	0.0	0.0	0.0	0.0	0.0	0.0	0.0	0.0	0.0	0.0	0.0	0.0	0.0	0.0	0.0	0.0	0.0	0.0	0.0	0.0	0.0	0.0	0.0	0.0	0.0	0.0	0.0
88	1.4666666666666666	1.0034716286263747	1.739051825690638	0.27931581143082224	1.591214941203599	1.7671107917075806	0.22272337055920555	2.138233574656113	1.798134298067942	0.18375728772329736	2.275895762694773	1.8551674373977878	0.10046361892490928	2.4161303677945023	1.9679312512122478	0.2369140606865559	2.1766308162036743	1.780656206689669	0.18953250163957852	0.0	0.0	0.0	0.0	0.0	0.0	0.0	0.0	0.0	0.0	0.0	0.0	0.0	0.0	0.0	1.3575096759416871	1.1479075360924047	0.014082586480402084	0.0	0.0	0.0	0.0	0.0	0.0	0.0	0.0	0.0	0.0	0.0	0.0	0.6988273316336376	1.6823748611560378	0.45718386641063535	0.0	0.0	0.0	0.0	0.0	0.0	0.0	0.0	0.0	0.0	0.0	0.0	0.0	0.0	0.0	0.0	0.0	0.0	0.0	0.0	0.0	0.0	0.0	0.0	0.0	0.0	0.0	0.0	0.0	0.0
